<mxfile host="app.diagrams.net" agent="Mozilla/5.0 (Windows NT 10.0; Win64; x64; rv:134.0) Gecko/20100101 Firefox/134.0" version="24.8.3">
  <diagram name="Page-1" id="s8xztOO7BumkGDskIjR9">
    <mxGraphModel dx="1687" dy="909" grid="1" gridSize="10" guides="1" tooltips="1" connect="1" arrows="1" fold="1" page="1" pageScale="1" pageWidth="827" pageHeight="1169" math="0" shadow="0">
      <root>
        <mxCell id="0" />
        <mxCell id="1" parent="0" />
        <mxCell id="BGrVTVoPzo42Mm0vaw1O-76" style="edgeStyle=orthogonalEdgeStyle;rounded=0;orthogonalLoop=1;jettySize=auto;html=1;exitX=1;exitY=0.75;exitDx=0;exitDy=0;entryX=0;entryY=0.5;entryDx=0;entryDy=0;" edge="1" parent="1" source="BGrVTVoPzo42Mm0vaw1O-77" target="BGrVTVoPzo42Mm0vaw1O-88">
          <mxGeometry relative="1" as="geometry" />
        </mxCell>
        <mxCell id="BGrVTVoPzo42Mm0vaw1O-77" value="" style="rounded=0;whiteSpace=wrap;html=1;" vertex="1" parent="1">
          <mxGeometry x="151" y="650" width="190" height="280" as="geometry" />
        </mxCell>
        <mxCell id="BGrVTVoPzo42Mm0vaw1O-88" value="&lt;font style=&quot;font-size: 20px;&quot;&gt;IDPRO&lt;/font&gt;" style="whiteSpace=wrap;html=1;" vertex="1" parent="1">
          <mxGeometry x="480" y="760" width="120" height="60" as="geometry" />
        </mxCell>
        <mxCell id="BGrVTVoPzo42Mm0vaw1O-98" value="&lt;font style=&quot;font-size: 20px;&quot;&gt;ANY&lt;/font&gt;" style="text;html=1;align=center;verticalAlign=middle;resizable=0;points=[];autosize=1;strokeColor=none;fillColor=none;" vertex="1" parent="1">
          <mxGeometry x="216" y="740" width="60" height="40" as="geometry" />
        </mxCell>
        <mxCell id="BGrVTVoPzo42Mm0vaw1O-99" value="&lt;font style=&quot;font-size: 20px;&quot;&gt;MODUL&lt;font style=&quot;font-size: 20px;&quot;&gt;&lt;br&gt;&lt;/font&gt;&lt;/font&gt;" style="text;html=1;align=center;verticalAlign=middle;resizable=0;points=[];autosize=1;strokeColor=none;fillColor=none;" vertex="1" parent="1">
          <mxGeometry x="196" y="800" width="100" height="40" as="geometry" />
        </mxCell>
        <mxCell id="BGrVTVoPzo42Mm0vaw1O-100" value="" style="shape=image;verticalLabelPosition=bottom;labelBackgroundColor=default;verticalAlign=top;aspect=fixed;imageAspect=0;image=data:image/png,iVBORw0KGgoAAAANSUhEUgAAALwAAACiCAYAAAD7ladAAAASTUlEQVR4Xu2dfYhVxRvHn4WE/gjsDwUDQQk3cttSQaNchYRe1F/BBuUbigbpJiTeoIWClQoXKhTcrcCXgpLeRAUX9OcKiga1GhQUqYu4KxgECvVHf/SHkLDd79w7d+fePe9n5pw5Z56BZXfvPWfOzPN8zpznPPPMM20T1UJcWAKOSKCNgXdE09xNIQEGnkFwSgIMvFPq5s4y8MyAUxJg4J1SN3eWgWcGnJIAA++UurmzDDwz4JQEGHin1M2dZeCZAackwMA7pW7uLAPPDDglAQbeKXVzZxl4ZsApCTDwTqmbO8vAMwNOSYCBd0rd3FkGnhlwSgIMvFPq5s4y8MyAUxJg4J1SN3eWgWcGnJIAA++UurmzDDwz4JQEGHin1M2dZeCZAackwMA7pW7uLAPPDDglAQa+ZOpua2uzqke25epl4K3CI31jALwtkNnUFilZ64G3bcQKQzJv2GyCzKa2FAr4vCEKg7whTAtGV5sgs6ktDHxUimMcpyr4hx9+oK+//pq6urpo48aNMWpJd6hNkNnUFgY+HVdTzv7rr79o5syZ1NPTQ+fPn6exsTFxzJkzZ+i5557TfDX/6myCzKa2MPAaEPznn38E3Pi5cOEC/fbbb1NqvXr1KnV0dGi4WrQqbILMpraUFPhh6mlbTYeWDtDYyE6aJ3qJz4aoe+IgrYrGTKyjTp06Rdu3b6c//vjD8zyYM4888gjNmzeP5s6dK35mzJgR6xpxDvaGbJwGu9qpclGpadtpmjgoJRIut/HBLtpMh2lkZ02qUQoDH0VKLcfEExoU109Xll6kzr4JqunTLPC4wt9//01vvPEGffHFF02tv+++++iJJ56g8fFxunnzZuM7fC7hx40wZ86cxv/4/P77708gqdop/sBvJjo8QjVe6zcAyYEhXG4MfGKVxDsxCfAdA51UqRCdFqN6C/DDPdS2+lCjEdtOKzdG13Xq6KxQRXy9rXp+Nw3hiVH9b+nAWOjohrZi9IY9j7Jw4UL65ZdfGteS4AP+33//vXEj4P/bt283jgPw6hNBvSHw+b333usrxGjAy4FgNYRUHRhqwAfJjYGPx23ioxMBPzZCD+1po/4OQDo2adKMD1JX+1FaU/1ejHRN/9ce61fqYA/3tNHqQ0tpAMcSzhulvhCzCG39888/hYlz/Phx6u7uphMnTkTqO94HAL78uXHjRuNv3Cj4XpZZs2Y1PRFwQ8gbpL293WPiCSO6OsLXakIfJ2VUBd5PbkJUbNJEUmTag5ICPwkpRum6DY/RfahbsV1blT5p60PB7aN99WO9gWntm9pWAH/t2jXq6+tLKwJxPp4a8mbADYAnBP6XT427d+82rnPr1i3CTTFZ/IEf6lZG+KabW5EbA69Fh5EqSQx8dQSvjWAD1FkZrb20+gA/qXR9wEfqnMaD8NKMG2D58uURR/i6GSOedurfHnJj4DVqKqSqNMDXTJYKXRT2eBX4UJOmuMBLMUa14YXJdqX5pRUmzaSpp8iNgS8I8HU7dfWhOvA1w9X/pVVxX6Y1abKTUPOVkrslaza89DrW3mEm5cY2fEYajTfCZ9Qon8vY0FYb2hD8tMlZR9XArIl8mxB8dZsUGCYnG9pqQxsY+DBSAr63SYFh3bChrTa0gYEPI4WBTyGhKDZ8uup//fVXMYkWVLyOsenma9yEbNKkg0E9O08Fww/f29tLAwMD9NNPP9HixYu1dAz1IWwCwXFPPfWUZ50///wzPfnkk/Tpp5/Sli1bGsfkKQ+/zhdixZPlrxm5Kxj+95dffllMdKkzslqIT1mJbborBPApZZ7p6VkreGhoiF555RURanDs2DERYpC24Gmxfv16Qt3ffvstvfTSS75V4rhz586JmKHZs2envbTx860H3rgECnoB1YR57bXXaN++fYFBZVG7iSfEqlWrCDb58PAwLVu2zPdURIfiZjt58iQ9//zzUS+R63EMfK7iT3Zx1YSB3bxu3bpkFbWchYjNFStWiHBn2OwPP/ywb72I4Vm0aBG9+uqr4mYrSmHgi6KpejtNmDCo+sqVK/TMM8+IWHzA3hx81iwkPF2WLFkiPrx06ZKWJ0tWamDgs5J0yuuYMmHQrO+++45eeOEF4dmBeYIFKkEFXpvPPvtMeIOCngIpu2zkdAbeiFj1VmrKhEErjxw5Qps2bRIvpl9++SXdc889gY3HonTY+J9//nmTC1Jvj83VxsCbk62Wmk2ZMGjc3r17he/+zTffpD179oS2FyHIsNuffvpp4b0pYmHgLdWaSRNG1v3JJ58I0CtYDxlScA5GdrysXr58OdTsCasvr+8Z+LwkH3BdkybMnTt3hAmDbAswYYJ87GoTP/jgA9q1a5d4SdU1i5uH6Bn4PKQecE2TJgyWCb744ovCI4OX0yAfu9rEH3/8Uaykev/994X5U+TCwFuiPZMmDLqIpwZMEozwmFCK6l2BTx52O47HeUUv1gOPAKQiljghBiZNGMgOs6aAHb51QBvkY2+VNUIH4LZE6ECc82zVWSGAjwOPDYKOEyVo0oSBLBDnAjMGCaGQMiTMx67K78CBAyLlCG6SlStX2iDa1G1g4FOLcGoFUYA3bcKgVV999ZWIdUHoAfzmYT52tSew8xHy+/rrrwvbvSyFgTegSRV4uPEQL67Gu5g2YdCl/v5+4VV56623YgMLOx+w4waBVybOjWJAnFqrZOC1irNWmQo8RlgkZYINjNBd0yYMnhw7duwQU/8ff/wxIZIybsH5iISEvx1hx2UqpQS+lmKirqamTMIJVVdP7TGZhzK4Hgk8Rvf58+cTIMQSOawYwgoineG8aksQ2gsfO+x2+NiR6i9uwQ0Jmx8zqbqiMOO2weTxpQNewE5KKugqrF3Xe0MTofoJWdZ3ulprLUNZuDok8Bjd1YzCMA0AogmQENqLVU+4ybAQJKqPXe2NDB1AbDts/jKWcgEvMosFJD31TcJUSy+nJBVGumAlx3zt+zjAYwcQObqr4JgIugLkiHbEkwQTSlF97Gq7cC5i4TE5hSjION6cIt0Y5QIeQPd3NIHaUEZQmj1kBxbJdbGJQnOeRXl+XOA3bNhA33zzzRQWAOPg4CA9++yzWjjBCzFgx/I6wJ7UV/7ee+8RwgfwkhqWoUBLw3OqxB3ggzIH/+//2oGH+aJm9IV+sbgCMK1duzbRy2QrI4iHwcQQzBeYMUlHZWzAhtE9aiBZTqxquWy5gA8yaUIzB9c2PkDx2vwg7ggPjwzgXrBgAXV2doq/dXo84IXBpBDSYuzfvz+x6xChA48++qgICIuay14LeTlVUi7g5VYuncpLK26CPQ/RSO91/80QxsJfbOMCb3J2GObHu+++K37eeeedVOjAIwOzCG5Tk3tPpWqkxpNLBjwk07qBV4TMwY202pOSlS7IKS+zVN8VJCAbRpSZ1iQ6hImEUR2eH4zqWECdpiB0AD73s2fP+iZZSlO/jeeWEPj4Yp7c+qVOsYf5E6dWE8DDxy4DueAjT5sWAwFlmE1FuO/u3bvjdK/QxzLw4qEgN06QulSeCgnUqxt4+NhheiAkAXY2AsHSFNw8gF1mKChT6ECYXBj4MAkl+F4n8EifB7cjoATsSXzsrV2AWYTF2wgdKEK2sAQq8D2FgdcpzXpduoCHuxCzp/D4wO2Y1MeudhFxPagTN0+S0AMD4sq0SgbegLh1AI+YFsTFIEMAwhGS+tjV7sEkwuolhDbgpdfFUgjgi6iYNG5J6T2BFwYRjzpsbBk6AL87QgeCNjcuoryjttl64KN2pCzHIYYdsezwnOja4xWyefvttwlpORA6gIkwVwsDb4nmMQJv3bpVrFJq3VggbRMRLow1rUnj49Ne36bzGXgLtAE3IdyOSIeBl1Od60cR/Qi7Ha5M1O16YeBzJgA+doy++I3F0rojFeHSxPpUhA7A7+56YeBzJAA+dsCOF0jArjO4DN3C6irkjvz+++9TT1blKCatl2bgtYozemXwscOMwUQSfOK6A7dk6ACCy7CQm0tNAgy8YRKQAaDVBYjJHyz/g62OFVA6fOxqN/BOALsdTww8OXS4NQ2LKbPqrQW+qBnHVM39+++/YqcMdbMxuAaxoYBcyG0CRtxMWBxSlI3GMqPd5hFex2xlloJsvRbaD9AxjQ+zBXb0hx9+KHKyI7GRKTMDMTKIqixTtjCderR6hE8zW6lTSEnqAvAwWbBjBgpsdMxymspagGsgdACrl4q20VgS+SY9h4FPKrmQ87xMMuSlwWILE2YMJq4Q8ovfCB0wcQ1Dosq0WgbekLj93kGQqxEznrqLDB2QGc5011+W+hh4A5rEKDtt2jTfmmHbR915I0rzir7RWJQ+6jqGgdclSaWejz76iHbu3Ck+mT59Oj3++OPCW4Pf+HnggQe0XRUztHKjMbwfcAmWAANvgBB4SeAtQcw54tmxgMNUkRuNwZTR7c831eY862XgDUk/C7cqXJyw3Yu+0ZghFXhWW0rgtWYPVvNRxshEbBp45JKBV8aFbGE6b4jSAa83e3A1z2TXdeoVOSdr+W6OrhmLlInYJPAydACmUhk2GtMJdFhd5QLeYPZgCHJ8sIs20+HcgZf5aZB1QHfQWRgwRf++XMAbzB4sM5qN9sXLEa8bEGQdQ6wMJrDwQswlngTcAT5l9mCM7u2jfTQRZUeEqg5MmDTIAw8XZNk2GouHbLqjywW8oezBAvaja7zzzvvIXzfwmMyCLx+hxghE49CBZOCXC3gD2YOnvARHlLNu4BFSDHMG/nbdK6MidqkUh5UMePFqKbwplYtSPymyB7e35pxEndHyTuoEXoYOlHWjsSzvpBICH198urMHowW6gJcbjSEtHtJ3cEknAQa+5m+sbpZQocZDIeIoHiR6HcDDbpcZDTCbyqED6WAXA1F1kcVE+mr016ADGP2til6jjvZjkzHs9lH2jcaiSzX9kQx8ehl61pAWeCRlWr58Oe3bt0+4IbnokQADr0eOU2pJAzyWAsLfjqRMLmw0ZkgF3gMRmzRmxJ0GeIQOIG8NQgc4W5he/fAIr1eejdqSAi9TZV+4cCHR9vGGulOaaq0GvuhSjusPQA5IudFY2u0oiy47U+23FnhTHba1XmQoA+xwPWJ059ABM5pi4M3INXat2C8VywI5W1hs0cU6gYGPJS4zB2M/JyRWdXWjMTNS9a6Vgc9S2h7XkqED2GjMRL6anLtn3eUZ+BxVIjcaw5I9zKa6utFYlipg4LOUdsu1EDaAzAOubzSWpQoY+CylrVwLE0srVqwQuWuQ/JRLNhJg4LORc9NVEDqALL/Lli0jxLhzyU4ChQG+aBskBE06wSODLWl4o7HsQJdXKhTwcWcusxdn7YpBYQUydICzheWjHQbegNz9gOeNxgwIO2aVDHxMgUU53At4uB4ROjBr1iyRU4ZLPhJg4A3IHcBj/Sni2RcvXiyusH37dsLufQj5BfRc8pFACYGv5oNsW02Htp2OnDRJFX1TOr16ItWlA9HySTZejKrAY8MDhAzs3r1bpMvG5ma80Vg+kKtXLR/wMsNY7/WWhdmy20tpYGyEdvqkbJ+SP9IjY1mY2jDCd3Z2ii3fZalUKmK5Hpd8JVBe4JWUeHGSoE45FhkNNhMdFhmEoxUvFyqSnmKHDuzsxyU/CTgLvEifJ7M1KeaPKeClirE/K/Zp5ZKPBEoHvNdoHgYxEjENddeyAocdG0VNXiP8/Pnzae3ateIHGxVzyUcCpQLez3Rp/bxpdK/LXb6YetbRatZUs/hW30R9NaYC/+CDDwrIEf772GOP5aNlvmpDAqUCHr2KMsIHpb6eej68PkPUPXGQVon880QDfR002j9K3SPVzzxgksAjPR7MFx7R7bnjSgc8eXhVPM2U9lHqA8Qtugg0aap199BBYfoM9/QQHfQHHnEy8MNzsUsCbgJffxI0Xlpp0lWpC/iixP3YhaP51jgBfCoxqk+MGCM8A59K6sZOLh/wlG6mtUnS9azC1ZmqSBuZyXOTJmEypmWuuLwvrTboloG3QQvebSjhCJ+/sBn4/HXg1wIG3oBuGHgDQtVUJQOvSZBqNQy8AaFqqrJQwGvqcybVsJcmEzHHvkhhgI/dMz6BJeAhAQaesXBKAgy8U+rmzjLwzIBTEmDgnVI3d5aBZwackgAD75S6ubMMPDPglAQYeKfUzZ1l4JkBpyTAwDulbu4sA88MOCUBBt4pdXNnGXhmwCkJMPBOqZs7y8AzA05JgIF3St3cWQaeGXBKAgy8U+rmzjLwzIBTEmDgnVI3d/Y/wqoJ3uQG4AQAAAAASUVORK5CYII=;" vertex="1" parent="1">
          <mxGeometry x="640" y="600" width="382.97" height="330" as="geometry" />
        </mxCell>
        <mxCell id="BGrVTVoPzo42Mm0vaw1O-101" value="&lt;font style=&quot;font-size: 18px;&quot;&gt;CÃ¡rrec&lt;br&gt;&lt;/font&gt;" style="rounded=0;whiteSpace=wrap;html=1;strokeColor=none;" vertex="1" parent="1">
          <mxGeometry x="730" y="850" width="80" height="30" as="geometry" />
        </mxCell>
      </root>
    </mxGraphModel>
  </diagram>
</mxfile>
